STARTFONT 2.1
FONT -sun-timmons-bold-i-normal--20-200-75-75-p-111-adobe-fontspecific
SIZE 20 75 75
FONTBOUNDINGBOX 27 23 -4 -4

STARTPROPERTIES 28
FOUNDRY "sun"
FAMILY_NAME "timmons"
WEIGHT_NAME "bold"
SLANT "i"
SETWIDTH_NAME "normal"
ADD_STYLE_NAME ""
PIXEL_SIZE 21
POINT_SIZE 200
RESOLUTION_X 75
RESOLUTION_Y 75
SPACING "p"
AVERAGE_WIDTH 111
CHARSET_REGISTRY "adobe"
CHARSET_ENCODING "fontspecific"
COPYRIGHT "© 1999 Sun Microsystems, Inc."
RAW_PIXELSIZE 1000
RAW_POINTSIZE 964
RAW_ASCENT 932
RAW_DESCENT 200
RAW_AVERAGE_WIDTH 5346
FACE_NAME "TimmonsBoldItalicdensedN5"
_XMBDFED_INFO "Edited with xmbdfed 2.4."
WEIGHT 10
X_HEIGHT -2
QUAD_WIDTH 11
DEFAULT_CHAR 4
FONT_DESCENT 4
FONT_ASCENT 19
ENDPROPERTIES

CHARS 206

STARTCHAR char32
ENCODING 32
SWIDTH 25 0
DWIDTH 6 0
BBX 0 0 0 0
BITMAP
ENDCHAR

STARTCHAR char33
ENCODING 33
SWIDTH 25 0
DWIDTH 6 0
BBX 6 15 2 0
BITMAP
0C
0C
1C
1C
18
18
10
10
20
20
20
00
E0
E0
60
ENDCHAR

STARTCHAR char34
ENCODING 34
SWIDTH 43 0
DWIDTH 10 0
BBX 8 6 4 9
BITMAP
42
E7
E7
63
42
8C
ENDCHAR

STARTCHAR char35
ENCODING 35
SWIDTH 3 0
DWIDTH 11 0
BBX 10 16 0 0
BITMAP
0880
0880
1980
1980
7FC0
7FC0
1100
1100
1100
3300
FFC0
7FC0
3300
2200
2200
2200
ENDCHAR

STARTCHAR char36
ENCODING 36
SWIDTH 3 0
DWIDTH 11 0
BBX 12 19 0 -2
BITMAP
0040
0040
07E0
0CB0
1CB0
1D90
1D10
1F00
0F00
0780
03C0
03E0
45E0
44E0
44E0
E5C0
7F80
0C00
0800
ENDCHAR

STARTCHAR char37
ENCODING 37
SWIDTH 25 0
DWIDTH 16 0
BBX 14 15 2 0
BITMAP
1C20
3620
6640
6640
CE80
CF80
CD3C
CF6C
DA6C
76CC
04CC
0CC8
08D8
18D0
1060
ENDCHAR

STARTCHAR char38
ENCODING 38
SWIDTH 29 0
DWIDTH 17 0
BBX 14 15 1 0
BITMAP
01E0
0370
0370
0760
0760
0780
0700
0F7C
3338
63B0
E3E0
E1C0
F1E4
7FFC
3C78
ENDCHAR

STARTCHAR char39
ENCODING 39
SWIDTH 21 0
DWIDTH 5 0
BBX 4 6 4 9
BITMAP
10
20
40
C0
E0
E0
ENDCHAR

STARTCHAR char40
ENCODING 40
SWIDTH 34 0
DWIDTH 8 0
BBX 9 19 2 -3
BITMAP
0080
0300
0600
0C00
1C00
3800
3800
7000
7000
F000
E000
E000
E000
E000
E000
6000
2000
2000
1000
ENDCHAR

STARTCHAR char41
ENCODING 41
SWIDTH 34 0
DWIDTH 8 0
BBX 8 19 -1 -3
BITMAP
04
04
06
06
06
07
07
07
07
07
07
0E
0E
0C
1C
38
30
C0
80
ENDCHAR

STARTCHAR char42
ENCODING 42
SWIDTH 43 0
DWIDTH 10 0
BBX 8 8 4 7
BITMAP
1C
CC
FA
7F
7F
EC
CC
04
ENDCHAR

STARTCHAR char43
ENCODING 43
SWIDTH 16 0
DWIDTH 14 0
BBX 13 12 1 0
BITMAP
0300
0300
0300
0300
0300
FFF8
FFF8
0300
0300
0300
0300
0300
ENDCHAR

STARTCHAR char44
ENCODING 44
SWIDTH 21 0
DWIDTH 5 0
BBX 4 6 0 -3
BITMAP
70
70
70
30
20
C0
ENDCHAR

STARTCHAR char45
ENCODING 45
SWIDTH 34 0
DWIDTH 8 0
BBX 7 2 1 5
BITMAP
7E
7C
ENDCHAR

STARTCHAR char46
ENCODING 46
SWIDTH 21 0
DWIDTH 5 0
BBX 3 3 1 0
BITMAP
E0
E0
E0
ENDCHAR

STARTCHAR char47
ENCODING 47
SWIDTH 38 0
DWIDTH 9 0
BBX 8 15 2 0
BITMAP
03
02
06
06
0C
0C
08
18
10
30
30
60
60
C0
C0
ENDCHAR

STARTCHAR char48
ENCODING 48
SWIDTH 43 0
DWIDTH 10 0
BBX 10 15 2 0
BITMAP
0700
1980
39C0
31C0
71C0
71C0
E3C0
E3C0
E380
C780
C700
C700
CE00
CC00
7800
ENDCHAR

STARTCHAR char49
ENCODING 49
SWIDTH 43 0
DWIDTH 10 0
BBX 9 15 1 0
BITMAP
0180
1F00
0700
0700
0700
0E00
0E00
0E00
0C00
1C00
1C00
1C00
3800
3800
FE00
ENDCHAR

STARTCHAR char50
ENCODING 50
SWIDTH 43 0
DWIDTH 10 0
BBX 9 15 1 0
BITMAP
0E00
1F00
2380
2380
0380
0380
0300
0700
0600
0C00
1800
1100
2600
7E00
FC00
ENDCHAR

STARTCHAR char51
ENCODING 51
SWIDTH 43 0
DWIDTH 10 0
BBX 9 15 1 0
BITMAP
0F00
1F80
1380
0380
0380
0700
1C00
1F00
0F00
0700
0700
0700
0600
E600
7800
ENDCHAR

STARTCHAR char52
ENCODING 52
SWIDTH 43 0
DWIDTH 10 0
BBX 10 15 1 0
BITMAP
00C0
01C0
0380
0780
0780
0B80
1300
2700
6700
4600
FF80
FF80
0E00
0C00
1C00
ENDCHAR

STARTCHAR char53
ENCODING 53
SWIDTH 43 0
DWIDTH 10 0
BBX 10 15 1 0
BITMAP
0FC0
0FC0
0F80
1000
1800
3E00
1F00
0780
0380
0380
0380
0300
0300
E600
7800
ENDCHAR

STARTCHAR char54
ENCODING 54
SWIDTH 43 0
DWIDTH 10 0
BBX 10 15 1 0
BITMAP
00C0
0380
0F00
1E00
1C00
3800
7F80
71C0
71C0
61C0
61C0
63C0
6380
6700
3E00
ENDCHAR

STARTCHAR char55
ENCODING 55
SWIDTH 43 0
DWIDTH 10 0
BBX 9 15 3 0
BITMAP
7F80
7F80
FF00
8300
0200
0600
0C00
0800
1800
1000
3000
6000
4000
C000
8000
ENDCHAR

STARTCHAR char56
ENCODING 56
SWIDTH 43 0
DWIDTH 10 0
BBX 10 15 1 0
BITMAP
0780
1DC0
19C0
38C0
19C0
1D80
1E00
1F00
3700
6780
E380
E380
E300
6700
3C00
ENDCHAR

STARTCHAR char57
ENCODING 57
SWIDTH 43 0
DWIDTH 10 0
BBX 10 15 2 0
BITMAP
1F00
3980
71C0
F1C0
E1C0
E1C0
E3C0
E380
7F80
1780
0F00
0E00
1C00
3800
E000
ENDCHAR

STARTCHAR char58
ENCODING 58
SWIDTH 25 0
DWIDTH 6 0
BBX 5 10 2 0
BITMAP
10
38
38
00
00
00
00
C0
E0
C0
ENDCHAR

STARTCHAR char59
ENCODING 59
SWIDTH 25 0
DWIDTH 6 0
BBX 6 12 1 -3
BITMAP
1C
1C
18
00
00
00
70
70
70
30
60
80
ENDCHAR

STARTCHAR char60
ENCODING 60
SWIDTH 8 0
DWIDTH 12 0
BBX 11 11 0 0
BITMAP
0020
00E0
0380
0E00
3800
E000
7000
1C00
0700
01C0
0020
ENDCHAR

STARTCHAR char61
ENCODING 61
SWIDTH 16 0
DWIDTH 14 0
BBX 15 5 0 4
BITMAP
FFFE
FFFE
0000
0000
FFFE
ENDCHAR

STARTCHAR char62
ENCODING 62
SWIDTH 8 0
DWIDTH 12 0
BBX 10 11 1 0
BITMAP
8000
C000
7000
1E00
0380
00C0
01C0
0F00
3800
E000
8000
ENDCHAR

STARTCHAR char63
ENCODING 63
SWIDTH 43 0
DWIDTH 10 0
BBX 8 15 3 0
BITMAP
1C
37
77
37
07
0E
1C
18
20
20
40
00
E0
E0
E0
ENDCHAR

STARTCHAR char64
ENCODING 64
SWIDTH 11 0
DWIDTH 23 0
BBX 15 15 3 0
BITMAP
07E0
1838
300C
6394
6676
CC66
D826
D826
D866
D844
4CC8
6770
3004
1818
07E0
ENDCHAR

STARTCHAR char65
ENCODING 65
SWIDTH 16 0
DWIDTH 14 0
BBX 14 15 -1 0
BITMAP
0008
000C
0018
0038
0078
0058
0098
0138
0238
07F8
0438
0838
1038
3078
F8FC
ENDCHAR

STARTCHAR char66
ENCODING 66
SWIDTH 12 0
DWIDTH 13 0
BBX 14 15 -1 0
BITMAP
0FF0
07BC
079C
071C
071C
0718
0F70
0FE0
0E70
1E38
1C38
1C38
1C70
38F0
FFC0
ENDCHAR

STARTCHAR char67
ENCODING 67
SWIDTH 20 0
DWIDTH 15 0
BBX 15 15 2 0
BITMAP
01FE
070C
1E0C
3C04
7804
7000
F000
F000
E000
E000
E000
F010
7010
3C60
1F80
ENDCHAR

STARTCHAR char68
ENCODING 68
SWIDTH 20 0
DWIDTH 15 0
BBX 16 15 -1 0
BITMAP
0FF0
07BC
078E
070E
0707
0707
0F07
0E07
0E0F
1E0E
1C1E
1C1C
1C38
3C70
FFC0
ENDCHAR

STARTCHAR char69
ENCODING 69
SWIDTH 12 0
DWIDTH 13 0
BBX 15 15 -1 0
BITMAP
0FFE
078E
0386
0782
0700
0710
0F30
0FF0
0E20
0E20
1C00
1C08
1C18
3C70
7FF0
ENDCHAR

STARTCHAR char70
ENCODING 70
SWIDTH 3 0
DWIDTH 11 0
BBX 14 15 0 0
BITMAP
1FFC
0738
0708
0F08
0E00
0E20
0EC0
1FC0
1C40
1C40
3C00
3800
3800
7800
FC00
ENDCHAR

STARTCHAR char71
ENCODING 71
SWIDTH 25 0
DWIDTH 16 0
BBX 15 15 2 0
BITMAP
01FE
0F0E
1E04
3C04
7800
7000
F000
F0FC
E078
E070
E070
E070
70E0
38E0
1FC0
ENDCHAR

STARTCHAR char72
ENCODING 72
SWIDTH 25 0
DWIDTH 16 0
BBX 19 15 -1 0
BITMAP
0FEFE0
0783C0
078380
070380
070700
070700
0F0700
0FFF00
0E0E00
1E0E00
1C0E00
1C1C00
1C1C00
3C1C00
FE7E00
ENDCHAR

STARTCHAR char73
ENCODING 73
SWIDTH 34 0
DWIDTH 8 0
BBX 10 15 0 0
BITMAP
1FC0
0780
0700
0F00
0E00
0E00
0E00
1E00
1C00
1C00
3C00
3800
3800
7800
3C00
ENDCHAR

STARTCHAR char74
ENCODING 74
SWIDTH 38 0
DWIDTH 9 0
BBX 13 15 -1 0
BITMAP
03F8
00E0
00E0
01E0
01C0
01C0
01C0
0380
0380
0380
0780
6700
F700
EE00
7C00
ENDCHAR

STARTCHAR char75
ENCODING 75
SWIDTH 16 0
DWIDTH 14 0
BBX 15 15 1 0
BITMAP
3FBE
1E18
1E30
1C60
1C80
1D00
3F00
3F00
3B80
3B80
7380
71C0
71C0
F1E0
F9F0
ENDCHAR

STARTCHAR char76
ENCODING 76
SWIDTH 12 0
DWIDTH 13 0
BBX 13 15 -1 0
BITMAP
0FE0
0780
0380
0780
0700
0700
0F00
0E00
0E00
0E00
1C00
1C08
1C18
3C70
FFF0
ENDCHAR

STARTCHAR char77
ENCODING 77
SWIDTH 38 0
DWIDTH 19 0
BBX 22 15 -1 0
BITMAP
0F807C
0380F8
0780F0
0781F0
0783E0
0DC2E0
09C4E0
09C9E0
09C9C0
11D1C0
11E3C0
11E380
31C380
318780
F987C0
ENDCHAR

STARTCHAR char78
ENCODING 78
SWIDTH 20 0
DWIDTH 15 0
BBX 19 15 -1 0
BITMAP
0F83C0
038180
03C100
05C100
05E100
04E200
08F200
087200
087200
103C00
103C00
103C00
101800
301800
F80800
ENDCHAR

STARTCHAR char79
ENCODING 79
SWIDTH 25 0
DWIDTH 16 0
BBX 14 15 2 0
BITMAP
01E0
0638
1C18
1C1C
381C
781C
701C
F01C
E038
E038
E070
E070
E0E0
71C0
3F00
ENDCHAR

STARTCHAR char80
ENCODING 80
SWIDTH 12 0
DWIDTH 13 0
BBX 15 15 -1 0
BITMAP
0FF8
039C
038E
078E
070E
071E
0F3C
0FF8
0E00
0E00
1E00
1C00
1C00
3C00
7E00
ENDCHAR

STARTCHAR char81
ENCODING 81
SWIDTH 25 0
DWIDTH 16 0
BBX 14 18 2 -3
BITMAP
01F0
0638
1C18
181C
381C
701C
701C
F01C
E038
E038
E070
E070
E0E0
71C0
3F00
0804
3FF8
4FE0
ENDCHAR

STARTCHAR char82
ENCODING 82
SWIDTH 16 0
DWIDTH 14 0
BBX 15 15 -1 0
BITMAP
0FF8
079C
078E
070E
070E
071C
0E38
0FE0
0EE0
1EE0
1CF0
1C70
1C70
3C78
FE3C
ENDCHAR

STARTCHAR char83
ENCODING 83
SWIDTH 8 0
DWIDTH 12 0
BBX 13 15 0 0
BITMAP
03C8
0638
1C18
1C18
1E08
1F00
0F80
0780
03C0
41E0
40E0
40E0
60E0
71C0
DF00
ENDCHAR

STARTCHAR char84
ENCODING 84
SWIDTH 3 0
DWIDTH 11 0
BBX 13 15 1 0
BITMAP
3FF8
3BB8
2398
4710
0700
0700
0F00
0E00
0E00
0E00
1C00
1C00
1C00
3C00
FE00
ENDCHAR

STARTCHAR char85
ENCODING 85
SWIDTH 20 0
DWIDTH 15 0
BBX 16 15 2 0
BITMAP
7E1E
3C0C
3C08
3C08
3808
7810
7810
7010
7030
F020
F020
E060
E040
7080
3F00
ENDCHAR

STARTCHAR char86
ENCODING 86
SWIDTH 12 0
DWIDTH 13 0
BBX 14 15 3 0
BITMAP
FC78
7830
7820
7040
70C0
7080
7100
7200
7600
7C00
7800
7000
6000
C000
C000
ENDCHAR

STARTCHAR char87
ENCODING 87
SWIDTH 42 0
DWIDTH 20 0
BBX 20 15 3 0
BITMAP
FDF9F0
78F0C0
70E080
70E100
71E300
73E200
73E400
75E800
79F800
69F000
F1E000
F1C000
E1C000
C18000
810000
ENDCHAR

STARTCHAR char88
ENCODING 88
SWIDTH 16 0
DWIDTH 14 0
BBX 17 15 -1 0
BITMAP
0FCF80
078600
038400
038800
03D000
01E000
01C000
01E000
01E000
03E000
06F000
0C7000
187000
307800
FCFC00
ENDCHAR

STARTCHAR char89
ENCODING 89
SWIDTH 16 0
DWIDTH 14 0
BBX 14 15 3 0
BITMAP
FE7C
7818
3830
3820
1C40
1C80
1D00
1F00
0E00
1C00
1C00
1C00
3C00
3C00
FE00
ENDCHAR

STARTCHAR char90
ENCODING 90
SWIDTH 12 0
DWIDTH 13 0
BBX 16 15 -1 0
BITMAP
07FF
0E1E
0C1E
083C
0078
00F0
01E0
03C0
0380
0780
0F00
1E08
3C18
7878
7FF0
ENDCHAR

STARTCHAR char91
ENCODING 91
SWIDTH 25 0
DWIDTH 6 0
BBX 10 19 0 -3
BITMAP
07C0
0700
0E00
0E00
0C00
1C00
1C00
1C00
1800
3800
3800
3000
7000
7000
7000
E000
E000
E000
F800
ENDCHAR

STARTCHAR char92
ENCODING 92
SWIDTH 25 0
DWIDTH 6 0
BBX 6 15 0 0
BITMAP
80
C0
40
40
60
20
20
30
10
10
18
18
08
0C
0C
ENDCHAR

STARTCHAR char93
ENCODING 93
SWIDTH 25 0
DWIDTH 6 0
BBX 10 19 -2 -3
BITMAP
0600
01C0
01C0
01C0
0180
0380
0380
0300
0700
0700
0700
0600
0E00
0E00
0C00
1C00
1C00
3C00
F800
ENDCHAR

STARTCHAR char94
ENCODING 94
SWIDTH 0 0
DWIDTH 0 0
BBX 7 3 0 16
BITMAP
3C
7E
C6
ENDCHAR

STARTCHAR char95
ENCODING 95
SWIDTH 8 0
DWIDTH 12 0
BBX 12 1 0 -3
BITMAP
FFF0
ENDCHAR

STARTCHAR char96
ENCODING 96
SWIDTH 0 0
DWIDTH 0 0
BBX 4 3 0 12
BITMAP
E0
60
20
ENDCHAR

STARTCHAR char97
ENCODING 97
SWIDTH 3 0
DWIDTH 11 0
BBX 10 10 1 0
BITMAP
0FC0
19C0
3380
6380
6380
E700
E700
EF40
FF80
7700
ENDCHAR

STARTCHAR char98
ENCODING 98
SWIDTH 43 0
DWIDTH 10 0
BBX 9 15 1 0
BITMAP
1C00
1C00
1C00
1800
3800
3F00
3B80
3380
7380
7380
6380
E300
E700
CE00
7800
ENDCHAR

STARTCHAR char99
ENCODING 99
SWIDTH 38 0
DWIDTH 9 0
BBX 9 10 1 0
BITMAP
0F00
3B80
3380
6000
E000
E000
E000
E100
F600
7C00
ENDCHAR

STARTCHAR char100
ENCODING 100
SWIDTH 3 0
DWIDTH 11 0
BBX 12 15 1 0
BITMAP
00E0
00E0
00E0
00E0
00C0
0FC0
39C0
3180
7380
6380
E380
E700
EF40
FF80
7700
ENDCHAR

STARTCHAR char101
ENCODING 101
SWIDTH 38 0
DWIDTH 9 0
BBX 9 10 1 0
BITMAP
0F00
3B80
3380
6300
E600
F800
E000
E100
F600
3800
ENDCHAR

STARTCHAR char102
ENCODING 102
SWIDTH 30 0
DWIDTH 7 0
BBX 14 19 -3 -4
BITMAP
003C
006C
00C0
01C0
0180
07E0
0380
0380
0300
0700
0700
0600
0E00
0E00
0C00
1C00
F800
F800
2000
ENDCHAR

STARTCHAR char103
ENCODING 103
SWIDTH 43 0
DWIDTH 10 0
BBX 12 13 -1 -3
BITMAP
0F80
1CF0
38E0
39E0
39C0
1F80
3000
3E00
3F80
77C0
C1C0
E180
7E00
ENDCHAR

STARTCHAR char104
ENCODING 104
SWIDTH 8 0
DWIDTH 12 0
BBX 11 15 0 0
BITMAP
0E00
0E00
0E00
0E00
1C00
1DE0
1FE0
3CE0
3CC0
39C0
39C0
71C0
73A0
73E0
2180
ENDCHAR

STARTCHAR char105
ENCODING 105
SWIDTH 25 0
DWIDTH 6 0
BBX 6 15 1 0
BITMAP
1C
1C
1C
00
00
78
38
30
30
70
70
60
E8
F0
60
ENDCHAR

STARTCHAR char106
ENCODING 106
SWIDTH 25 0
DWIDTH 6 0
BBX 11 18 -4 -3
BITMAP
00C0
00E0
00C0
0000
0000
03C0
01C0
0380
0380
0380
0300
0700
0700
0600
0E00
0E00
EC00
F800
ENDCHAR

STARTCHAR char107
ENCODING 107
SWIDTH 3 0
DWIDTH 11 0
BBX 12 15 0 0
BITMAP
1E00
0E00
0E00
0C00
1C00
1DF0
1CC0
3980
3B00
3F00
7B00
7380
73A0
73C0
6180
ENDCHAR

STARTCHAR char108
ENCODING 108
SWIDTH 25 0
DWIDTH 6 0
BBX 7 15 1 0
BITMAP
1E
1C
1C
1C
18
38
38
30
70
70
70
E0
E8
F0
E0
ENDCHAR

STARTCHAR char109
ENCODING 109
SWIDTH 29 0
DWIDTH 17 0
BBX 16 10 0 0
BITMAP
39CF
1FFF
1EF7
3CE7
39CE
39CE
71CE
739D
739F
639C
ENDCHAR

STARTCHAR char110
ENCODING 110
SWIDTH 8 0
DWIDTH 12 0
BBX 11 10 0 0
BITMAP
00E0
1FE0
1AE0
3CE0
39C0
39C0
7180
73A0
73E0
2380
ENDCHAR

STARTCHAR char111
ENCODING 111
SWIDTH 3 0
DWIDTH 11 0
BBX 10 10 1 0
BITMAP
0F00
3980
71C0
71C0
E1C0
E3C0
E380
E380
6700
3C00
ENDCHAR

STARTCHAR char112
ENCODING 112
SWIDTH 3 0
DWIDTH 11 0
BBX 12 13 -2 -3
BITMAP
08E0
0FF0
0E70
0E70
0E70
0C60
1C60
1CC0
18C0
3F00
3800
3800
F800
ENDCHAR

STARTCHAR char113
ENCODING 113
SWIDTH 3 0
DWIDTH 11 0
BBX 10 13 1 -3
BITMAP
0FC0
39C0
3180
7380
6380
E380
E700
E700
FF00
7600
0E00
0E00
3F00
ENDCHAR

STARTCHAR char114
ENCODING 114
SWIDTH 34 0
DWIDTH 8 0
BBX 8 10 1 0
BITMAP
43
37
37
38
78
70
60
E0
E0
C0
ENDCHAR

STARTCHAR char115
ENCODING 115
SWIDTH 38 0
DWIDTH 9 0
BBX 9 10 0 0
BITMAP
1F80
3100
3900
3C00
1E00
0F00
0F00
4700
6700
FE00
ENDCHAR

STARTCHAR char116
ENCODING 116
SWIDTH 30 0
DWIDTH 7 0
BBX 7 13 1 0
BITMAP
04
04
1C
7E
38
38
70
70
70
F0
E8
E8
F0
ENDCHAR

STARTCHAR char117
ENCODING 117
SWIDTH 8 0
DWIDTH 12 0
BBX 11 10 1 0
BITMAP
00C0
39C0
39C0
71C0
7380
7380
E780
EB20
FFC0
E300
ENDCHAR

STARTCHAR char118
ENCODING 118
SWIDTH 38 0
DWIDTH 9 0
BBX 8 10 1 0
BITMAP
67
F7
73
73
32
34
34
38
30
20
ENDCHAR

STARTCHAR char119
ENCODING 119
SWIDTH 12 0
DWIDTH 13 0
BBX 14 10 0 0
BITMAP
385C
78DC
39CC
3BCC
3DC8
3DD0
39F0
31E0
3180
2100
ENDCHAR

STARTCHAR char120
ENCODING 120
SWIDTH 3 0
DWIDTH 11 0
BBX 11 10 0 0
BITMAP
1C60
1CE0
0D00
0E00
0E00
0E00
0F00
1740
F740
E380
ENDCHAR

STARTCHAR char121
ENCODING 121
SWIDTH 38 0
DWIDTH 9 0
BBX 12 13 -2 -3
BITMAP
1C70
0E70
0E30
0E20
0E20
0E40
0E80
0F00
0F00
0E00
C800
F000
E000
ENDCHAR

STARTCHAR char122
ENCODING 122
SWIDTH 38 0
DWIDTH 9 0
BBX 9 12 0 -2
BITMAP
1F80
3F00
2600
2400
0800
1800
1000
2000
7700
FF00
1F00
0E00
ENDCHAR

STARTCHAR char123
ENCODING 123
SWIDTH 30 0
DWIDTH 7 0
BBX 5 19 1 -4
BITMAP
38
60
60
60
60
60
60
60
40
80
40
60
60
60
60
60
60
70
38
ENDCHAR

STARTCHAR char124
ENCODING 124
SWIDTH 25 0
DWIDTH 6 0
BBX 2 15 2 0
BITMAP
C0
C0
C0
C0
C0
C0
C0
C0
C0
C0
C0
C0
C0
C0
C0
ENDCHAR

STARTCHAR char125
ENCODING 125
SWIDTH 30 0
DWIDTH 7 0
BBX 5 19 1 -4
BITMAP
C0
20
20
20
20
20
20
30
10
08
10
30
30
30
30
30
30
70
E0
ENDCHAR

STARTCHAR char126
ENCODING 126
SWIDTH 0 0
DWIDTH 0 0
BBX 8 3 0 16
BITMAP
39
7F
8C
ENDCHAR

STARTCHAR char128
ENCODING 128
SWIDTH 43 0
DWIDTH 10 0
BBX 12 14 0 0
BITMAP
01F0
0710
0E10
1C10
1C00
3800
7FC0
FF80
7000
7000
7000
70C0
3180
1E00
ENDCHAR

STARTCHAR char130
ENCODING 130
SWIDTH 21 0
DWIDTH 5 0
BBX 4 6 0 -3
BITMAP
70
70
70
30
20
C0
ENDCHAR

STARTCHAR char131
ENCODING 131
SWIDTH 0 0
DWIDTH 0 0
BBX 7 3 0 16
BITMAP
3C
7E
C6
ENDCHAR

STARTCHAR char132
ENCODING 132
SWIDTH 43 0
DWIDTH 10 0
BBX 9 6 0 -3
BITMAP
7380
7380
7380
2180
6300
8400
ENDCHAR

STARTCHAR char133
ENCODING 133
SWIDTH 7 0
DWIDTH 22 0
BBX 16 2 2 0
BITMAP
E387
E387
ENDCHAR

STARTCHAR char134
ENCODING 134
SWIDTH 43 0
DWIDTH 10 0
BBX 8 18 3 -3
BITMAP
0C
1C
1C
18
FF
D7
10
38
30
20
20
60
40
40
40
80
80
80
ENDCHAR

STARTCHAR char136
ENCODING 136
SWIDTH 0 0
DWIDTH 0 0
BBX 7 3 -2 12
BITMAP
1C
36
66
ENDCHAR

STARTCHAR char137
ENCODING 137
SWIDTH 3 0
DWIDTH 21 0
BBX 0 0 0 0
BITMAP
ENDCHAR

STARTCHAR char138
ENCODING 138
SWIDTH 3 0
DWIDTH 21 0
BBX 0 0 0 0
BITMAP
ENDCHAR

STARTCHAR char139
ENCODING 139
SWIDTH 30 0
DWIDTH 7 0
BBX 3 7 2 2
BITMAP
20
60
C0
80
E0
60
20
ENDCHAR

STARTCHAR char140
ENCODING 140
SWIDTH 3 0
DWIDTH 21 0
BBX 20 15 2 0
BITMAP
01FFF0
073C70
1C3C30
183C10
383800
703880
703980
F07F80
E07100
E07100
E0F000
E0E040
E1E0C0
73E380
3FFF80
ENDCHAR

STARTCHAR char141
ENCODING 141
SWIDTH 3 0
DWIDTH 21 0
BBX 0 0 0 0
BITMAP
ENDCHAR

STARTCHAR char143
ENCODING 143
SWIDTH 3 0
DWIDTH 21 0
BBX 0 0 0 0
BITMAP
ENDCHAR

STARTCHAR char145
ENCODING 145
SWIDTH 21 0
DWIDTH 5 0
BBX 4 6 4 9
BITMAP
10
20
40
C0
E0
E0
ENDCHAR

STARTCHAR char146
ENCODING 146
SWIDTH 21 0
DWIDTH 5 0
BBX 4 6 3 9
BITMAP
20
70
70
30
20
C0
ENDCHAR

STARTCHAR char147
ENCODING 147
SWIDTH 43 0
DWIDTH 10 0
BBX 9 6 3 9
BITMAP
3980
2200
4200
C600
E700
E700
ENDCHAR

STARTCHAR char148
ENCODING 148
SWIDTH 43 0
DWIDTH 10 0
BBX 8 6 4 9
BITMAP
42
E7
E7
63
42
84
ENDCHAR

STARTCHAR char149
ENCODING 149
SWIDTH 30 0
DWIDTH 7 0
BBX 5 5 1 5
BITMAP
70
F8
F8
F8
70
ENDCHAR

STARTCHAR char150
ENCODING 150
SWIDTH 43 0
DWIDTH 10 0
BBX 10 2 1 5
BITMAP
7F80
FF80
ENDCHAR

STARTCHAR char151
ENCODING 151
SWIDTH 16 0
DWIDTH 14 0
BBX 15 2 0 5
BITMAP
FFFE
FFFE
ENDCHAR

STARTCHAR char152
ENCODING 152
SWIDTH 0 0
DWIDTH 0 0
BBX 7 2 -1 12
BITMAP
FE
9C
ENDCHAR

STARTCHAR char153
ENCODING 153
SWIDTH 38 0
DWIDTH 19 0
BBX 17 8 0 6
BITMAP
FFC380
96C300
10E500
10A500
10A700
109B00
109B00
39D380
ENDCHAR

STARTCHAR char155
ENCODING 155
SWIDTH 30 0
DWIDTH 7 0
BBX 3 7 2 2
BITMAP
80
C0
60
20
E0
80
80
ENDCHAR

STARTCHAR char156
ENCODING 156
SWIDTH 20 0
DWIDTH 15 0
BBX 14 10 1 0
BITMAP
1F38
3BDC
719C
639C
E3B8
E3C0
E700
E708
6FF0
79C0
ENDCHAR

STARTCHAR char157
ENCODING 157
SWIDTH 3 0
DWIDTH 21 0
BBX 0 0 0 0
BITMAP
ENDCHAR

STARTCHAR char159
ENCODING 159
SWIDTH 16 0
DWIDTH 14 0
BBX 14 19 3 0
BITMAP
1C70
1C70
1870
0000
FE3C
7818
3810
3820
3840
1C80
1D00
1F00
1E00
1C00
1C00
1C00
3800
3800
FE00
ENDCHAR

STARTCHAR char160
ENCODING 160
SWIDTH 25 0
DWIDTH 6 0
BBX 0 0 0 0
BITMAP
ENDCHAR

STARTCHAR char161
ENCODING 161
SWIDTH 25 0
DWIDTH 6 0
BBX 6 15 1 0
BITMAP
18
1C
18
00
10
10
10
30
20
60
60
E0
E0
E0
C0
ENDCHAR

STARTCHAR char162
ENCODING 162
SWIDTH 38 0
DWIDTH 9 0
BBX 9 14 1 -2
BITMAP
0200
0200
0F00
3780
7780
6800
E800
E800
F000
F100
FE00
7C00
2000
2000
ENDCHAR

STARTCHAR char163
ENCODING 163
SWIDTH 16 0
DWIDTH 14 0
BBX 13 15 1 0
BITMAP
00F0
01B8
0338
0700
0700
0700
0E00
1F80
0E00
0E00
0C00
0C00
7800
DFE0
E7C0
ENDCHAR

STARTCHAR char164
ENCODING 164
SWIDTH 0 0
DWIDTH 0 0
BBX 6 3 2 16
BITMAP
38
70
E0
ENDCHAR

STARTCHAR char165
ENCODING 165
SWIDTH 0 0
DWIDTH 0 0
BBX 8 3 1 16
BITMAP
47
6C
78
ENDCHAR

STARTCHAR char166
ENCODING 166
SWIDTH 3 0
DWIDTH 21 0
BBX 0 0 0 0
BITMAP
ENDCHAR

STARTCHAR char167
ENCODING 167
SWIDTH 3 0
DWIDTH 11 0
BBX 11 19 0 -3
BITMAP
01E0
0360
0760
0700
0700
0300
1F80
3B80
39C0
39C0
19C0
1DC0
1F80
0E00
0E00
0600
4600
E600
7E00
ENDCHAR

STARTCHAR char168
ENCODING 168
SWIDTH 0 0
DWIDTH 0 0
BBX 7 3 -1 12
BITMAP
EE
EE
EE
ENDCHAR

STARTCHAR char169
ENCODING 169
SWIDTH 29 0
DWIDTH 17 0
BBX 15 14 0 0
BITMAP
07C0
0830
1018
23EC
4664
C426
CC06
CC06
CC06
4406
4644
2388
1810
07E0
ENDCHAR

STARTCHAR char170
ENCODING 170
SWIDTH 0 0
DWIDTH 0 0
BBX 8 3 0 16
BITMAP
E7
E7
C7
ENDCHAR

STARTCHAR char171
ENCODING 171
SWIDTH 3 0
DWIDTH 11 0
BBX 11 10 1 1
BITMAP
0440
08C0
1880
3180
6300
6700
6300
6300
2100
3100
ENDCHAR

STARTCHAR char172
ENCODING 172
SWIDTH 20 0
DWIDTH 15 0
BBX 14 6 0 0
BITMAP
FFFC
000C
000C
000C
000C
000C
ENDCHAR

STARTCHAR char174
ENCODING 174
SWIDTH 29 0
DWIDTH 17 0
BBX 15 14 0 0
BITMAP
03C0
0C20
1018
2FC8
4664
C666
C6C6
C786
C6C6
46C6
4F74
2008
1010
0FE0
ENDCHAR

STARTCHAR char175
ENCODING 175
SWIDTH 3 0
DWIDTH 21 0
BBX 0 0 0 0
BITMAP
ENDCHAR

STARTCHAR char176
ENCODING 176
SWIDTH 25 0
DWIDTH 6 0
BBX 7 6 3 8
BITMAP
38
44
C6
C6
C4
78
ENDCHAR

STARTCHAR char177
ENCODING 177
SWIDTH 8 0
DWIDTH 12 0
BBX 11 13 0 0
BITMAP
0C00
0C00
0C00
0C00
0C00
FFE0
0C00
0C00
0C00
0C00
0C00
0000
FFE0
ENDCHAR

STARTCHAR char179
ENCODING 179
SWIDTH 3 0
DWIDTH 21 0
BBX 0 0 0 0
BITMAP
ENDCHAR

STARTCHAR char180
ENCODING 180
SWIDTH 0 0
DWIDTH 0 0
BBX 5 3 1 12
BITMAP
30
60
40
ENDCHAR

STARTCHAR char182
ENCODING 182
SWIDTH 20 0
DWIDTH 15 0
BBX 9 18 2 -3
BITMAP
3F80
7980
F980
F980
F980
F980
F980
7980
1980
1980
1980
1980
1980
1980
1980
1980
1980
1980
ENDCHAR

STARTCHAR char183
ENCODING 183
SWIDTH 17 0
DWIDTH 4 0
BBX 3 3 1 5
BITMAP
E0
E0
E0
ENDCHAR

STARTCHAR char184
ENCODING 184
SWIDTH 0 0
DWIDTH 0 0
BBX 5 4 -3 -4
BITMAP
20
70
38
F0
ENDCHAR

STARTCHAR char186
ENCODING 186
SWIDTH 0 0
DWIDTH 0 0
BBX 8 3 0 16
BITMAP
39
7F
8C
ENDCHAR

STARTCHAR char187
ENCODING 187
SWIDTH 3 0
DWIDTH 11 0
BBX 10 10 0 1
BITMAP
1100
1180
1180
1880
18C0
18C0
3980
3180
6300
4600
ENDCHAR

STARTCHAR char189
ENCODING 189
SWIDTH 3 0
DWIDTH 21 0
BBX 0 0 0 0
BITMAP
ENDCHAR

STARTCHAR char191
ENCODING 191
SWIDTH 43 0
DWIDTH 10 0
BBX 9 15 0 0
BITMAP
0380
0380
0100
0000
0100
0100
0200
0C00
3C00
7800
F000
E600
E700
E600
7C00
ENDCHAR

STARTCHAR char192
ENCODING 192
SWIDTH 16 0
DWIDTH 14 0
BBX 14 19 -1 0
BITMAP
0070
0030
0010
0000
000C
000C
0018
0038
0078
0058
0098
0138
0238
07F8
0438
0838
1038
3078
F8FC
ENDCHAR

STARTCHAR char193
ENCODING 193
SWIDTH 16 0
DWIDTH 14 0
BBX 15 19 -1 0
BITMAP
001C
0038
0070
0000
000C
000C
0018
0038
0078
0058
0098
0138
0238
07F8
0438
0838
1038
3078
F8FC
ENDCHAR

STARTCHAR char194
ENCODING 194
SWIDTH 16 0
DWIDTH 14 0
BBX 14 19 -1 0
BITMAP
0078
00EC
01CC
0000
000C
000C
0018
0038
0078
0058
0098
0138
0238
07F8
0438
0838
1038
3078
F8FC
ENDCHAR

STARTCHAR char195
ENCODING 195
SWIDTH 16 0
DWIDTH 14 0
BBX 15 19 -1 0
BITMAP
0072
00FC
0108
0000
000C
0008
0018
0038
0078
00D8
0098
0138
0238
07F8
0438
0838
1038
3078
F8FC
ENDCHAR

STARTCHAR char196
ENCODING 196
SWIDTH 16 0
DWIDTH 14 0
BBX 18 19 -1 0
BITMAP
0031C0
0079C0
0031C0
000000
000400
000800
001800
003800
007800
007800
00B800
013800
023800
07F800
043800
083800
103800
307800
F8FC00
ENDCHAR

STARTCHAR char197
ENCODING 197
SWIDTH 16 0
DWIDTH 14 0
BBX 16 19 -1 0
BITMAP
000E
0013
001B
000E
000C
000C
0018
0038
0078
0078
00B8
0138
0238
07F8
0438
0838
1078
3078
787C
ENDCHAR

STARTCHAR char198
ENCODING 198
SWIDTH 42 0
DWIDTH 20 0
BBX 22 15 -1 0
BITMAP
003FFC
001F38
001E08
002E08
005E00
009C20
019CC0
011FC0
023840
07F840
0C3800
087810
107060
3078E0
F9FFC0
ENDCHAR

STARTCHAR char199
ENCODING 199
SWIDTH 20 0
DWIDTH 15 0
BBX 15 19 2 -4
BITMAP
01FE
070C
1E0C
3C04
7804
7000
F000
F000
E000
E000
E000
F010
7010
3C60
0F80
1800
3800
1C00
7800
ENDCHAR

STARTCHAR char200
ENCODING 200
SWIDTH 12 0
DWIDTH 13 0
BBX 15 19 -1 0
BITMAP
00E0
0060
0030
0000
0FFE
078E
0386
0782
0700
0710
0F30
0FF0
0E20
0E20
1C00
1C08
1C18
3C70
7FF0
ENDCHAR

STARTCHAR char201
ENCODING 201
SWIDTH 12 0
DWIDTH 13 0
BBX 15 19 -1 0
BITMAP
003C
0030
0060
0000
0FFE
078E
0386
0782
0700
0710
0F30
0FF0
0E20
0E20
1C00
1C08
1C18
3C70
7FF0
ENDCHAR

STARTCHAR char202
ENCODING 202
SWIDTH 12 0
DWIDTH 13 0
BBX 15 19 -1 0
BITMAP
00F8
01F8
0398
0000
0FFE
078E
0386
0782
0700
0710
0F30
0FF0
0E20
0E20
1C00
1C08
1C18
3C70
7FF0
ENDCHAR

STARTCHAR char203
ENCODING 203
SWIDTH 12 0
DWIDTH 13 0
BBX 15 19 -1 0
BITMAP
038E
038E
0386
0000
0FFE
078E
0306
0702
0700
0710
0E70
0FF0
0E20
0C20
1C00
1C08
1C18
3C70
7FF0
ENDCHAR

STARTCHAR char204
ENCODING 204
SWIDTH 34 0
DWIDTH 8 0
BBX 10 19 0 0
BITMAP
0700
0300
0300
0000
1FC0
0780
0700
0F00
0E00
0E00
0E00
1E00
1C00
1C00
3C00
3800
3800
7800
3C00
ENDCHAR

STARTCHAR char205
ENCODING 205
SWIDTH 34 0
DWIDTH 8 0
BBX 11 19 0 0
BITMAP
01C0
0380
0300
0000
1FC0
0780
0700
0F00
0E00
0E00
0E00
1E00
1C00
1C00
3C00
3800
3800
7800
3C00
ENDCHAR

STARTCHAR char206
ENCODING 206
SWIDTH 34 0
DWIDTH 8 0
BBX 10 19 0 0
BITMAP
0780
0FC0
1CC0
0000
1FC0
0780
0700
0F00
0E00
0E00
0E00
1E00
1C00
1C00
3C00
3800
3800
7800
3C00
ENDCHAR

STARTCHAR char207
ENCODING 207
SWIDTH 34 0
DWIDTH 8 0
BBX 11 19 0 0
BITMAP
1CE0
1CE0
1C60
0000
1FC0
0700
0700
0F00
0E00
0E00
0E00
1E00
1C00
1C00
3C00
3800
3800
7800
3C00
ENDCHAR

STARTCHAR char209
ENCODING 209
SWIDTH 20 0
DWIDTH 15 0
BBX 19 19 -1 0
BITMAP
007200
00FE00
008C00
000000
0F83C0
038180
03C100
05C100
05E100
04E200
08F200
087200
087200
103C00
103C00
103C00
101800
301800
F80800
ENDCHAR

STARTCHAR char210
ENCODING 210
SWIDTH 25 0
DWIDTH 16 0
BBX 14 19 2 0
BITMAP
01C0
00C0
0040
0000
01E0
0638
1C18
1C1C
381C
781C
701C
F01C
E038
E038
E070
E070
E0E0
71C0
3F00
ENDCHAR

STARTCHAR char211
ENCODING 211
SWIDTH 25 0
DWIDTH 16 0
BBX 14 19 2 0
BITMAP
0070
00E0
00C0
0000
01E0
0638
1C18
1C1C
381C
781C
701C
F01C
E038
E038
E070
E070
E0E0
71C0
3F00
ENDCHAR

STARTCHAR char212
ENCODING 212
SWIDTH 25 0
DWIDTH 16 0
BBX 14 19 2 0
BITMAP
01E0
03E0
0730
0000
01E0
0638
1C18
1C1C
381C
781C
701C
F01C
E038
E038
E070
E070
E0E0
71C0
3F00
ENDCHAR

STARTCHAR char213
ENCODING 213
SWIDTH 25 0
DWIDTH 16 0
BBX 14 19 2 0
BITMAP
0188
03F0
0460
0000
01E0
0638
1C18
1C1C
381C
781C
701C
F01C
E038
E038
E070
E070
E0E0
71C0
3F00
ENDCHAR

STARTCHAR char214
ENCODING 214
SWIDTH 25 0
DWIDTH 16 0
BBX 14 19 2 0
BITMAP
039C
039C
039C
0000
01F0
0638
0C1C
1C1C
381C
781C
701C
F01C
E03C
E038
E070
E070
E0E0
71C0
3F00
ENDCHAR

STARTCHAR char216
ENCODING 216
SWIDTH 25 0
DWIDTH 16 0
BBX 16 17 1 -1
BITMAP
0002
00FA
031C
060E
0C1E
1C3E
386E
38CE
789E
791E
721C
743C
7838
7070
38E0
4F80
C000
ENDCHAR

STARTCHAR char217
ENCODING 217
SWIDTH 20 0
DWIDTH 15 0
BBX 16 19 2 0
BITMAP
0380
0180
00C0
0000
7F1F
3C0C
3C08
3C08
3808
7810
7810
7010
7030
F020
F020
E060
E040
7080
3F00
ENDCHAR

STARTCHAR char218
ENCODING 218
SWIDTH 20 0
DWIDTH 15 0
BBX 16 19 2 0
BITMAP
00F0
00C0
0180
0000
7F1F
3C0C
3C08
3C08
3808
7810
7810
7010
7030
F020
F020
E060
E040
7080
3F00
ENDCHAR

STARTCHAR char219
ENCODING 219
SWIDTH 20 0
DWIDTH 15 0
BBX 16 19 2 0
BITMAP
01E0
07E0
0E20
0000
7F1F
3C0C
3C08
3C08
3808
7810
7810
7010
7030
F020
F020
E060
E040
7080
3F00
ENDCHAR

STARTCHAR char220
ENCODING 220
SWIDTH 20 0
DWIDTH 15 0
BBX 16 19 2 0
BITMAP
071C
071C
071C
0000
7F1F
3C0C
380C
3808
3808
7808
7810
7010
7010
F020
F020
E060
E040
7180
3F00
ENDCHAR

STARTCHAR char221
ENCODING 221
SWIDTH 3 0
DWIDTH 21 0
BBX 0 0 0 0
BITMAP
ENDCHAR

STARTCHAR char222
ENCODING 222
SWIDTH 3 0
DWIDTH 21 0
BBX 0 0 0 0
BITMAP
ENDCHAR

STARTCHAR char223
ENCODING 223
SWIDTH 8 0
DWIDTH 12 0
BBX 16 19 -4 -3
BITMAP
001E
0036
0067
00E7
00C6
01CE
01CC
01B8
038C
038E
030E
070E
070C
071C
0ED8
0EF0
0C00
FC00
F000
ENDCHAR

STARTCHAR char224
ENCODING 224
SWIDTH 3 0
DWIDTH 11 0
BBX 10 15 1 0
BITMAP
0E00
0600
0200
0000
0000
0FC0
19C0
3380
6380
6380
E700
E700
EF40
FF80
7700
ENDCHAR

STARTCHAR char225
ENCODING 225
SWIDTH 3 0
DWIDTH 11 0
BBX 10 15 1 0
BITMAP
0380
0300
0600
0000
0000
0FC0
19C0
3380
6380
6380
E700
E700
EF40
FF80
7700
ENDCHAR

STARTCHAR char226
ENCODING 226
SWIDTH 3 0
DWIDTH 11 0
BBX 10 15 1 0
BITMAP
0700
0D00
1980
0000
0000
0FC0
19C0
3380
6380
6380
E700
E700
EF40
FF80
7700
ENDCHAR

STARTCHAR char227
ENCODING 227
SWIDTH 3 0
DWIDTH 11 0
BBX 10 14 1 0
BITMAP
1FC0
1380
0000
0000
0FC0
19C0
3180
7380
6380
E380
E700
EF40
FF80
7700
ENDCHAR

STARTCHAR char228
ENCODING 228
SWIDTH 3 0
DWIDTH 11 0
BBX 11 15 1 0
BITMAP
0EE0
0EE0
0EE0
0000
0000
0FC0
3BC0
3380
6380
6380
E700
E700
EF40
F780
7700
ENDCHAR

STARTCHAR char229
ENCODING 229
SWIDTH 3 0
DWIDTH 11 0
BBX 11 15 1 0
BITMAP
0380
06C0
06C0
0380
0000
1FC0
33C0
3380
7380
6780
E700
E700
EF60
FF80
7700
ENDCHAR

STARTCHAR char230
ENCODING 230
SWIDTH 16 0
DWIDTH 14 0
BBX 14 10 0 0
BITMAP
0F38
39DC
399C
039C
1FB8
73C0
E700
E708
FBF0
73C0
ENDCHAR

STARTCHAR char231
ENCODING 231
SWIDTH 38 0
DWIDTH 9 0
BBX 9 14 1 -4
BITMAP
0F00
3B80
3380
6000
E000
E000
E000
E100
F600
7C00
2000
7000
3000
F000
ENDCHAR

STARTCHAR char232
ENCODING 232
SWIDTH 38 0
DWIDTH 9 0
BBX 9 15 1 0
BITMAP
1C00
0C00
0400
0000
0000
0F00
3B80
3380
6300
E600
F800
E000
E100
F600
3800
ENDCHAR

STARTCHAR char233
ENCODING 233
SWIDTH 38 0
DWIDTH 9 0
BBX 9 15 1 0
BITMAP
0300
0600
0400
0000
0000
0F00
3B80
3380
6300
E600
F800
E000
E100
F600
3800
ENDCHAR

STARTCHAR char234
ENCODING 234
SWIDTH 38 0
DWIDTH 9 0
BBX 9 15 1 0
BITMAP
0E00
1A00
3300
0000
0000
0F00
3B80
3380
6300
E600
F800
E000
E100
F600
3800
ENDCHAR

STARTCHAR char235
ENCODING 235
SWIDTH 38 0
DWIDTH 9 0
BBX 9 15 1 0
BITMAP
3B80
3B80
3B80
0000
0000
0F00
1380
3380
6300
6E00
F000
E000
E100
7600
3800
ENDCHAR

STARTCHAR char236
ENCODING 236
SWIDTH 25 0
DWIDTH 6 0
BBX 6 15 1 0
BITMAP
30
18
08
00
00
78
38
38
70
70
70
F0
E8
E8
F0
ENDCHAR

STARTCHAR char237
ENCODING 237
SWIDTH 25 0
DWIDTH 6 0
BBX 8 15 1 0
BITMAP
0E
0C
18
00
00
78
38
38
78
70
70
F0
E8
E8
F0
ENDCHAR

STARTCHAR char238
ENCODING 238
SWIDTH 25 0
DWIDTH 6 0
BBX 7 15 1 0
BITMAP
1C
16
66
00
00
3C
18
18
38
38
30
70
78
78
70
ENDCHAR

STARTCHAR char239
ENCODING 239
SWIDTH 25 0
DWIDTH 6 0
BBX 8 15 1 0
BITMAP
77
77
77
00
00
7C
38
38
38
70
70
70
68
F8
70
ENDCHAR

STARTCHAR char241
ENCODING 241
SWIDTH 8 0
DWIDTH 12 0
BBX 12 14 0 0
BITMAP
0720
09C0
0000
0000
1CE0
1FE0
1AE0
3CE0
39C0
39C0
7180
73A0
73E0
2380
ENDCHAR

STARTCHAR char242
ENCODING 242
SWIDTH 3 0
DWIDTH 11 0
BBX 10 15 1 0
BITMAP
0C00
0600
0200
0000
0000
0F00
3980
71C0
71C0
E1C0
E3C0
E380
E380
6700
3C00
ENDCHAR

STARTCHAR char243
ENCODING 243
SWIDTH 3 0
DWIDTH 11 0
BBX 10 15 1 0
BITMAP
0380
0300
0600
0000
0000
0F00
3980
71C0
71C0
E1C0
E3C0
E380
E380
6700
3C00
ENDCHAR

STARTCHAR char244
ENCODING 244
SWIDTH 3 0
DWIDTH 11 0
BBX 10 15 1 0
BITMAP
0700
0D00
1980
0000
0000
0F00
3980
71C0
71C0
E1C0
E3C0
E380
E380
6700
3C00
ENDCHAR

STARTCHAR char245
ENCODING 245
SWIDTH 3 0
DWIDTH 11 0
BBX 10 14 1 0
BITMAP
0EC0
3300
0000
0000
0F00
3980
71C0
71C0
E1C0
E3C0
E380
E380
6700
3C00
ENDCHAR

STARTCHAR char246
ENCODING 246
SWIDTH 3 0
DWIDTH 11 0
BBX 11 15 1 0
BITMAP
0EE0
0EE0
0EE0
0000
0000
0F80
39C0
71C0
71C0
E1C0
E1C0
E380
E380
6700
3C00
ENDCHAR

STARTCHAR char247
ENCODING 247
SWIDTH 8 0
DWIDTH 12 0
BBX 11 7 0 2
BITMAP
0E00
0E00
0000
FFE0
0000
0E00
0E00
ENDCHAR

STARTCHAR char248
ENCODING 248
SWIDTH 3 0
DWIDTH 11 0
BBX 11 12 0 -1
BITMAP
0020
0FC0
1CC0
39C0
3AE0
73C0
75C0
79C0
7380
7300
5E00
4000
ENDCHAR

STARTCHAR char249
ENCODING 249
SWIDTH 8 0
DWIDTH 12 0
BBX 11 15 1 0
BITMAP
0E00
0600
0300
0000
0000
78C0
39C0
39C0
71C0
7380
7380
E780
EB20
FFC0
E300
ENDCHAR

STARTCHAR char250
ENCODING 250
SWIDTH 8 0
DWIDTH 12 0
BBX 11 15 1 0
BITMAP
0180
0300
0200
0000
0000
78C0
39C0
39C0
71C0
7380
7380
E780
EB20
FFC0
E300
ENDCHAR

STARTCHAR char251
ENCODING 251
SWIDTH 8 0
DWIDTH 12 0
BBX 11 15 1 0
BITMAP
0700
0D80
1980
0000
0000
78C0
39C0
39C0
71C0
7380
7380
E780
EB20
FFC0
E300
ENDCHAR

STARTCHAR char252
ENCODING 252
SWIDTH 8 0
DWIDTH 12 0
BBX 11 15 1 0
BITMAP
0EE0
0EE0
0E60
0000
0000
78E0
38E0
39C0
71C0
73C0
7380
E780
E7A0
FBC0
F380
ENDCHAR

STARTCHAR char255
ENCODING 255
SWIDTH 38 0
DWIDTH 9 0
BBX 12 18 -2 -3
BITMAP
0730
0770
0730
0000
0000
1C70
1E70
0E30
0E20
0E20
0E40
0E80
0F80
0F00
0E00
C800
F000
E000
ENDCHAR
ENDFONT
